# xmcd
#
# Track frame offsets:
# 150
# 56624
# 111910
#
# Disc length: 1705 seconds
#
#
# Revision: 0
# Processed by: cddbd v1.5.2PL0 Copyright (c) Steve Scherf et al.
# Submitted via: FreeRIP 2.943 
#
DISCID=2206a703
DTITLE=goliath bird eater - pentagon black
DYEAR=2008
DGENRE=Revival
TTITLE0=loop of pine
TTITLE1=shiranui
TTITLE2=pentagon black
EXTD=y
EXTT0=
EXTT1=
EXTT2=
PLAYORDER=
